<svg width="889" height="367" viewBox="0 0 889 367" fill="none" xmlns="http://www.w3.org/2000/svg" style="height:auto"><defs/><path xmlns="http://www.w3.org/2000/svg" stroke="#E1E4E8" stroke-width="3" stroke-linecap="round" d="M446 120.5v68"/><path d="M446 118c0 50.4 292 9.616 292 78M446 118c0 50.4-295 9.616-295 78M446 271.5v94M446 342c0-50.4 292-9.616 292-78M446 342c0-50.4-295-9.616-295-78" stroke="#E1E4E8" stroke-width="3" stroke-linecap="round"/><g filter="url(#filter0_d-edit1)"><mask id="path-7-inside-1" fill="#fff"><path fill-rule="evenodd" clip-rule="evenodd" d="M260 8a6 6 0 00-6 6v98a6 6 0 006 6h176.2c.927 4.564 4.962 8 9.8 8 4.838 0 8.873-3.436 9.8-8H632a6 6 0 006-6V14a6 6 0 00-6-6H260z"/></mask><path fill-rule="evenodd" clip-rule="evenodd" d="M260 8a6 6 0 00-6 6v98a6 6 0 006 6h176.2c.927 4.564 4.962 8 9.8 8 4.838 0 8.873-3.436 9.8-8H632a6 6 0 006-6V14a6 6 0 00-6-6H260z" fill="#6A737D"/><path d="M436.2 118l.98-.199-.163-.801h-.817v1zm19.6 0v-1h-.817l-.163.801.98.199zM255 14a5 5 0 015-5V7a7 7 0 00-7 7h2zm0 98V14h-2v98h2zm5 5a5 5 0 01-5-5h-2a7 7 0 007 7v-2zm176.2 0H260v2h176.2v-2zm9.8 8a9.003 9.003 0 01-8.82-7.199l-1.96.398C436.239 123.22 440.677 127 446 127v-2zm8.82-7.199A9.003 9.003 0 01446 125v2c5.323 0 9.761-3.78 10.78-8.801l-1.96-.398zM632 117H455.8v2H632v-2zm5-5a5 5 0 01-5 5v2a7 7 0 007-7h-2zm0-98v98h2V14h-2zm-5-5a5 5 0 015 5h2a7 7 0 00-7-7v2zM260 9h372V7H260v2z" fill="#000" fill-opacity=".05" mask="url(#path-7-inside-1)"/><circle cx="446" cy="117" r="4" fill="#2188FF"/><rect x="278.5" y="60.5" width="99" height="33" rx="16.5" stroke="#fff" stroke-opacity=".2"/><path d="M294.834 77.233c0-.533.077-1.027.232-1.483.155-.46.376-.859.663-1.196a3.103 3.103 0 011.06-.793 3.242 3.242 0 011.401-.294c.525 0 .994.098 1.409.294.419.191.772.456 1.059.793.292.337.515.736.67 1.196.155.456.233.95.233 1.483v.15c0 .534-.078 1.029-.233 1.484a3.531 3.531 0 01-.67 1.19 3.029 3.029 0 01-1.053.793 3.3 3.3 0 01-1.401.287c-.524 0-.996-.096-1.415-.287a3.102 3.102 0 01-1.06-.793 3.604 3.604 0 01-.663-1.19 4.579 4.579 0 01-.232-1.483v-.15zm1.265.15c0 .365.043.714.13 1.047.086.328.216.617.389.868.178.25.399.449.663.595.265.145.572.218.923.218.346 0 .65-.073.909-.218.265-.146.483-.344.657-.595.177-.25.309-.54.396-.868.087-.333.13-.682.13-1.046v-.15c0-.36-.046-.705-.137-1.033a2.653 2.653 0 00-.396-.875 1.904 1.904 0 00-.657-.595 1.795 1.795 0 00-.916-.225 1.8 1.8 0 00-.916.225 2.004 2.004 0 00-.656.595c-.173.25-.303.543-.389.875-.087.328-.13.672-.13 1.032v.15zm8.633-3.78l.089 1.094c.269-.383.6-.681.991-.895.392-.219.83-.33 1.313-.335.387 0 .738.055 1.053.164.319.11.59.28.813.513.224.232.394.528.513.888.123.356.184.78.184 1.272V81h-1.264v-4.669c0-.328-.037-.606-.11-.834a1.298 1.298 0 00-.328-.554 1.235 1.235 0 00-.526-.307 2.396 2.396 0 00-.711-.096c-.424 0-.798.107-1.121.321-.319.21-.574.488-.766.834V81h-1.264v-7.397h1.134zm9.817 6.577c0-.137.02-.265.061-.383a.932.932 0 01.192-.308.824.824 0 01.307-.212c.123-.05.267-.075.431-.075.164 0 .308.025.431.075a.82.82 0 01.314.212c.087.087.151.19.192.308.045.118.068.246.068.383 0 .132-.023.257-.068.376a.803.803 0 01-.192.3.793.793 0 01-.314.199c-.123.05-.267.075-.431.075-.164 0-.308-.025-.431-.075a.796.796 0 01-.307-.199.95.95 0 01-.192-.3 1.142 1.142 0 01-.061-.376zm0-5.989c0-.136.02-.264.061-.382a.933.933 0 01.192-.308.822.822 0 01.307-.212c.123-.05.267-.075.431-.075.164 0 .308.025.431.075.127.05.232.12.314.212.087.087.151.19.192.308.045.118.068.246.068.382 0 .133-.023.258-.068.376a.859.859 0 01-.506.506 1.24 1.24 0 01-.431.069 1.24 1.24 0 01-.431-.069.864.864 0 01-.307-.205.951.951 0 01-.192-.3 1.141 1.141 0 01-.061-.377z" fill="#959DA5"/><path d="M335.063 77.384c0 .528-.063 1.023-.191 1.483a3.69 3.69 0 01-.56 1.19 2.653 2.653 0 01-.916.793 2.6 2.6 0 01-1.238.287 3.06 3.06 0 01-1.196-.219 2.482 2.482 0 01-.882-.629v3.555h-1.265v-10.24h1.156l.061.806c.246-.305.543-.538.889-.697a2.842 2.842 0 011.217-.246c.474 0 .893.093 1.258.28.364.187.669.447.916.78.246.332.432.73.56 1.196.128.46.191.966.191 1.517v.144zm-1.264-.144c0-.36-.041-.702-.123-1.025a2.564 2.564 0 00-.369-.862 1.827 1.827 0 00-.629-.594c-.255-.146-.561-.219-.916-.219-.406 0-.748.096-1.026.287a2.094 2.094 0 00-.656.725v3.561c.164.292.383.531.656.718.274.182.62.273 1.039.273.351 0 .654-.072.91-.218.255-.15.464-.351.628-.602.165-.25.285-.54.363-.868.082-.328.123-.672.123-1.032v-.144zm8.23 2.741c-.246.365-.553.65-.923.855-.369.2-.795.3-1.278.3-.387 0-.738-.058-1.053-.177a2.05 2.05 0 01-.806-.567 2.654 2.654 0 01-.52-.971c-.118-.397-.178-.87-.178-1.422v-4.395h1.265v4.409c0 .4.032.733.096.998.064.264.159.476.287.636.128.154.282.264.465.328.187.063.401.095.642.095.515 0 .93-.104 1.245-.314a1.9 1.9 0 00.71-.848v-5.305h1.272V81h-1.149l-.075-1.019zm8.525-.943c0-.15-.03-.285-.089-.403a.898.898 0 00-.301-.335 2.29 2.29 0 00-.56-.274 5.698 5.698 0 00-.869-.232 8.936 8.936 0 01-1.162-.314 3.99 3.99 0 01-.895-.438 1.984 1.984 0 01-.574-.602 1.559 1.559 0 01-.206-.806c0-.301.071-.581.212-.841a2.15 2.15 0 01.595-.69c.255-.196.558-.351.909-.465.356-.114.745-.171 1.169-.171.456 0 .866.059 1.231.177.364.119.674.283.929.493.256.21.452.455.588.738.142.278.212.579.212.902h-1.264a.95.95 0 00-.124-.465 1.322 1.322 0 00-.341-.41 1.753 1.753 0 00-.534-.287 2.07 2.07 0 00-.697-.11c-.269 0-.506.03-.711.09-.2.059-.369.139-.506.239a1.03 1.03 0 00-.3.349.875.875 0 00-.103.41c0 .146.027.275.082.39a.808.808 0 00.28.307c.137.091.317.173.54.246.228.073.515.144.862.212.455.096.863.207 1.223.335.36.123.663.273.91.451.246.173.433.376.56.609.132.232.198.5.198.806 0 .328-.075.627-.225.896-.146.269-.351.499-.615.69-.265.192-.582.34-.951.445a4.415 4.415 0 01-1.21.157c-.501 0-.948-.066-1.339-.198a3.36 3.36 0 01-.999-.534 2.402 2.402 0 01-.622-.772 2.064 2.064 0 01-.211-.91h1.264c.018.26.087.48.205.657.123.178.274.321.451.43.183.11.383.187.602.233.219.045.435.068.649.068.534 0 .955-.098 1.265-.294.31-.196.467-.455.472-.779zm4.758-4.334c.264-.387.59-.688.977-.902.387-.219.823-.33 1.306-.335.387 0 .738.057 1.052.17.319.11.591.283.814.52.223.237.394.538.513.903.123.36.184.788.184 1.285V81h-1.264v-4.669c0-.606-.146-1.057-.438-1.353-.287-.297-.699-.442-1.237-.438-.406 0-.775.1-1.108.3a2.354 2.354 0 00-.799.787V81h-1.265V70.5h1.265v4.204z" fill="#E1E4E8"/><path d="M279.278 50h4.461c2.704 0 3.926-1.347 3.926-3.13 0-1.802-1.262-2.819-2.415-2.881v-.114c1.068-.273 1.96-1 1.96-2.455 0-1.721-1.193-3.056-3.67-3.056h-4.262V50zm1.756-1.506v-3.727h2.597c1.409 0 2.289.91 2.289 2.017 0 .977-.664 1.71-2.352 1.71h-2.534zm0-5.096v-3.54h2.398c1.392 0 2.057.733 2.057 1.699 0 1.125-.921 1.84-2.103 1.84h-2.352zm14.105 2.983c.006 1.483-1.096 2.187-2.051 2.187-1.051 0-1.778-.761-1.778-1.949v-5.346h-1.699v5.55c0 2.166 1.187 3.29 2.863 3.29 1.313 0 2.205-.693 2.608-1.624h.091V50h1.671v-8.727h-1.705v5.108zM299.126 50h1.699v-8.727h-1.699V50zm.858-10.074c.586 0 1.074-.454 1.074-1.011 0-.557-.488-1.017-1.074-1.017-.591 0-1.073.46-1.073 1.017 0 .557.482 1.011 1.073 1.011zm4.826-1.562h-1.699V50h1.699V38.364zm5.552 11.806c1.591 0 2.216-.971 2.523-1.528h.142V50h1.659V38.364h-1.699v4.324h-.102c-.307-.54-.886-1.529-2.511-1.529-2.108 0-3.66 1.665-3.66 4.494 0 2.824 1.529 4.517 3.648 4.517zm.375-1.448c-1.517 0-2.307-1.336-2.307-3.086 0-1.733.773-3.034 2.307-3.034 1.483 0 2.279 1.21 2.279 3.034 0 1.836-.813 3.086-2.279 3.086zm8.584-.313h-1.636l-.057.636c-.131 1.54-.494 3.091-.648 3.796h1.205c.272-.744.875-2.449 1.051-3.813l.085-.619zm6.009-8.534h3.625V50h1.75V39.875h3.63v-1.511h-9.005v1.511zm13.355 10.301c1.903 0 3.25-.937 3.636-2.358l-1.608-.29c-.307.824-1.045 1.245-2.011 1.245-1.455 0-2.432-.944-2.478-2.625h6.205v-.603c0-3.153-1.886-4.386-3.864-4.386-2.431 0-4.034 1.852-4.034 4.534 0 2.71 1.58 4.483 4.154 4.483zm-2.455-5.301c.068-1.239.966-2.313 2.347-2.313 1.318 0 2.182.978 2.187 2.313h-4.534zm14.624-1.472c-.353-1.358-1.415-2.244-3.301-2.244-1.972 0-3.37 1.04-3.37 2.585 0 1.239.75 2.063 2.387 2.426l1.477.324c.841.188 1.233.563 1.233 1.108 0 .676-.722 1.205-1.835 1.205-1.017 0-1.671-.438-1.875-1.296l-1.642.25c.284 1.546 1.568 2.415 3.528 2.415 2.108 0 3.568-1.12 3.568-2.699 0-1.233-.784-1.994-2.386-2.363l-1.387-.319c-.96-.227-1.375-.55-1.369-1.142-.006-.67.722-1.147 1.688-1.147 1.056 0 1.545.585 1.744 1.17l1.54-.273zm6.112-2.13h-1.79v-2.091h-1.699v2.09h-1.278v1.364h1.278v5.154c-.005 1.585 1.205 2.352 2.546 2.324a3.253 3.253 0 001.102-.182l-.307-1.404c-.113.023-.324.074-.596.074-.552 0-1.046-.181-1.046-1.164v-4.802h1.79v-1.363zm4.089 7.136h-1.636l-.057.636c-.13 1.54-.494 3.091-.648 3.796h1.205c.273-.744.875-2.449 1.051-3.813l.085-.619zm8.986 1.784c1.443 0 2.256-.733 2.58-1.386h.068V50h1.659v-5.795c0-2.54-2-3.046-3.386-3.046-1.58 0-3.034.636-3.603 2.227l1.597.364c.25-.62.886-1.216 2.028-1.216 1.097 0 1.659.574 1.659 1.563v.04c0 .619-.636.607-2.204.79-1.653.192-3.347.624-3.347 2.607 0 1.716 1.29 2.66 2.949 2.66zm.37-1.363c-.961 0-1.654-.432-1.654-1.273 0-.91.807-1.233 1.79-1.364.551-.074 1.858-.221 2.102-.466v1.125c0 1.034-.824 1.978-2.238 1.978zm7.899-4.012c0-1.392.852-2.187 2.034-2.187 1.153 0 1.852.755 1.852 2.022V50h1.699v-5.551c0-2.16-1.188-3.29-2.972-3.29-1.312 0-2.17.608-2.574 1.534h-.108v-1.42h-1.63V50h1.699v-5.182zm11.13 5.352c1.591 0 2.216-.971 2.523-1.528h.142V50h1.659V38.364h-1.699v4.324h-.102c-.307-.54-.886-1.529-2.511-1.529-2.108 0-3.659 1.665-3.659 4.494 0 2.824 1.528 4.517 3.647 4.517zm.375-1.448c-1.517 0-2.306-1.336-2.306-3.086 0-1.733.772-3.034 2.306-3.034 1.483 0 2.279 1.21 2.279 3.034 0 1.836-.813 3.086-2.279 3.086zM400.56 50h1.755v-4.09h2.387c2.699 0 4.034-1.632 4.034-3.78 0-2.141-1.324-3.766-4.029-3.766h-4.147V50zm1.755-5.58v-4.55h2.205c1.739 0 2.449.943 2.449 2.26 0 1.319-.71 2.29-2.426 2.29h-2.228zm13.871 1.96c.006 1.484-1.097 2.188-2.051 2.188-1.051 0-1.778-.761-1.778-1.949v-5.346h-1.699v5.55c0 2.166 1.187 3.29 2.863 3.29 1.313 0 2.205-.693 2.608-1.624h.091V50h1.671v-8.727h-1.705v5.108zM420.31 50h1.659v-1.358h.142c.307.557.932 1.528 2.523 1.528 2.113 0 3.647-1.693 3.647-4.517 0-2.83-1.557-4.494-3.665-4.494-1.619 0-2.204.989-2.505 1.529h-.102v-4.324h-1.699V50zm1.664-4.364c0-1.824.796-3.034 2.279-3.034 1.54 0 2.312 1.301 2.312 3.034 0 1.75-.795 3.086-2.312 3.086-1.46 0-2.279-1.25-2.279-3.086zm9.914-7.272h-1.699V50h1.699V38.364zM434.173 50h1.699v-8.727h-1.699V50zm.858-10.074c.585 0 1.074-.454 1.074-1.011 0-.557-.489-1.017-1.074-1.017-.591 0-1.074.46-1.074 1.017 0 .557.483 1.011 1.074 1.011zm9.666 3.477c-.352-1.358-1.414-2.244-3.301-2.244-1.971 0-3.369 1.04-3.369 2.585 0 1.239.75 2.063 2.386 2.426l1.478.324c.841.188 1.233.563 1.233 1.108 0 .676-.722 1.205-1.836 1.205-1.017 0-1.67-.438-1.875-1.296l-1.642.25c.284 1.546 1.568 2.415 3.529 2.415 2.108 0 3.568-1.12 3.568-2.699 0-1.233-.784-1.994-2.386-2.363l-1.387-.319c-.96-.227-1.375-.55-1.369-1.142-.006-.67.721-1.147 1.687-1.147 1.057 0 1.546.585 1.745 1.17l1.539-.273zm3.738 1.415c0-1.392.88-2.187 2.091-2.187 1.17 0 1.869.744 1.869 2.022V50h1.699v-5.551c0-2.176-1.193-3.29-2.989-3.29-1.358 0-2.176.591-2.585 1.534h-.108v-4.33h-1.676V50h1.699v-5.182z" fill="#fff"/></g><g filter="url(#filter1_d-edit1)"><mask id="path-13-outside-2" maskUnits="userSpaceOnUse" x="12" y="187" width="278" height="86" fill="#000"><path fill="#fff" d="M12 187h278v86H12z"/><path fill-rule="evenodd" clip-rule="evenodd" d="M151 188c-4.838 0-8.873 3.436-9.8 8H19a6 6 0 00-6 6v56a6 6 0 006 6h122.2c.927 4.564 4.962 8 9.8 8 4.838 0 8.873-3.436 9.8-8H283a6 6 0 006-6v-56a6 6 0 00-6-6H160.8c-.927-4.564-4.962-8-9.8-8z"/></mask><path fill-rule="evenodd" clip-rule="evenodd" d="M151 188c-4.838 0-8.873 3.436-9.8 8H19a6 6 0 00-6 6v56a6 6 0 006 6h122.2c.927 4.564 4.962 8 9.8 8 4.838 0 8.873-3.436 9.8-8H283a6 6 0 006-6v-56a6 6 0 00-6-6H160.8c-.927-4.564-4.962-8-9.8-8z" fill="#fff"/><path d="M141.2 196v1h.817l.163-.801-.98-.199zm0 68l.98-.199-.163-.801h-.817v1zm19.6 0v-1h-.817l-.163.801.98.199zm0-68l-.98.199.163.801h.817v-1zm-18.62.199A9.003 9.003 0 01151 189v-2c-5.323 0-9.761 3.78-10.78 8.801l1.96.398zM19 197h122.2v-2H19v2zm-5 5a5 5 0 015-5v-2a7 7 0 00-7 7h2zm0 56v-56h-2v56h2zm5 5a5 5 0 01-5-5h-2a7 7 0 007 7v-2zm122.2 0H19v2h122.2v-2zm9.8 8a9.003 9.003 0 01-8.82-7.199l-1.96.398C141.239 269.22 145.677 273 151 273v-2zm8.82-7.199A9.003 9.003 0 01151 271v2c5.323 0 9.761-3.78 10.78-8.801l-1.96-.398zM283 263H160.8v2H283v-2zm5-5a5 5 0 01-5 5v2a7 7 0 007-7h-2zm0-56v56h2v-56h-2zm-5-5a5 5 0 015 5h2a7 7 0 00-7-7v2zm-122.2 0H283v-2H160.8v2zm-9.8-8a9.003 9.003 0 018.82 7.199l1.96-.398C160.761 190.78 156.323 187 151 187v2z" fill="#6A737D" fill-opacity=".05" mask="url(#path-13-outside-2)"/><circle cx="151" cy="198" r="4" fill="#959DA5"/><circle cx="151" cy="262" r="4" fill="#2188FF"/><path d="M65.174 236.543c.101 0 .207.004.316.012.11.004.213.013.31.029.102.012.194.027.276.047.086.019.156.041.211.064l-.146 1.061a5.32 5.32 0 00-.604-.1 4.86 4.86 0 00-.592-.035c-.507 0-.92.115-1.236.346-.313.23-.543.553-.691.967V243h-1.09v-6.34h1.031l.053 1.008c.258-.348.566-.621.925-.82a2.491 2.491 0 011.237-.305zm7.166 5.584a2.28 2.28 0 01-.791.732 2.258 2.258 0 01-1.096.258c-.332 0-.633-.051-.902-.152-.27-.106-.5-.268-.692-.486a2.29 2.29 0 01-.445-.833c-.102-.339-.152-.746-.152-1.218v-3.768h1.084v3.779c0 .344.027.629.082.856.054.226.136.408.246.545a.89.89 0 00.398.281c.16.055.344.082.551.082.441 0 .797-.09 1.066-.269a1.63 1.63 0 00.61-.727v-4.547h1.09V243h-.985l-.064-.873zm4.066-5.467l.076.938c.23-.328.514-.584.85-.768a2.322 2.322 0 011.125-.287c.332 0 .633.047.902.141.274.093.506.24.698.439.191.199.337.453.44.762.105.304.157.668.157 1.09V243H79.57v-4.002c0-.281-.03-.519-.093-.715a1.068 1.068 0 00-.733-.738 2.044 2.044 0 00-.61-.082c-.362 0-.683.092-.96.275-.274.18-.492.418-.656.715V243h-1.084v-6.34h.972zm8.414 5.637c0-.117.018-.227.053-.328a.788.788 0 01.428-.446.973.973 0 01.369-.064c.14 0 .264.021.37.064.108.043.198.104.269.182a.681.681 0 01.164.264.905.905 0 01.058.328c0 .113-.02.221-.058.322a.69.69 0 01-.164.258.68.68 0 01-.27.17.974.974 0 01-.37.064.973.973 0 01-.368-.064.685.685 0 01-.264-.17.802.802 0 01-.164-.258.977.977 0 01-.053-.322zm0-5.133a1 1 0 01.053-.328.788.788 0 01.164-.264.708.708 0 01.264-.181.973.973 0 01.369-.065c.14 0 .264.022.37.065a.7.7 0 01.269.181.681.681 0 01.164.264.91.91 0 01.058.328c0 .113-.02.221-.058.322a.738.738 0 01-.434.434 1.063 1.063 0 01-.37.059c-.14 0-.263-.02-.368-.059a.747.747 0 01-.428-.434.977.977 0 01-.053-.322z" fill="#D1D5DA"/><path d="M98.027 236.66l.076.938c.231-.328.514-.584.85-.768a2.321 2.321 0 011.125-.287c.332 0 .633.047.902.141.274.093.506.24.698.439.191.199.338.453.439.762.106.304.158.668.158 1.09V243h-1.084v-4.002a2.39 2.39 0 00-.093-.715 1.128 1.128 0 00-.282-.474 1.065 1.065 0 00-.451-.264 2.044 2.044 0 00-.61-.082c-.362 0-.683.092-.96.275-.273.18-.492.418-.656.715V243h-1.084v-6.34h.972zm11.584 3.24c0 .454-.054.877-.164 1.272-.109.39-.269.73-.48 1.019a2.269 2.269 0 01-.785.68 2.227 2.227 0 01-1.061.246c-.387 0-.728-.062-1.025-.187a2.133 2.133 0 01-.756-.539v3.047h-1.084v-8.778h.99l.053.692c.211-.262.465-.461.762-.598.3-.141.648-.211 1.043-.211.406 0 .765.08 1.078.24.312.16.574.383.785.668.211.285.371.627.48 1.026.11.394.164.828.164 1.3v.123zm-1.084-.123c0-.308-.035-.601-.105-.879a2.182 2.182 0 00-.317-.738 1.556 1.556 0 00-.539-.51 1.554 1.554 0 00-.785-.187c-.347 0-.64.082-.879.246-.234.16-.422.367-.562.621v3.053c.14.25.328.455.562.615.235.156.532.234.891.234.301 0 .561-.062.779-.187.219-.129.399-.301.539-.516.141-.215.244-.463.311-.744.07-.281.105-.576.105-.885v-.123zm3.44-3.117l.029.598c.129-.223.297-.397.504-.522a1.51 1.51 0 01.762-.193c.582 0 .97.227 1.166.68.125-.203.289-.366.492-.487.207-.125.457-.189.75-.193.465 0 .822.143 1.072.428.25.285.375.717.375 1.295V243h-1.031v-4.746c0-.531-.244-.795-.732-.791a.93.93 0 00-.334.053.656.656 0 00-.381.357.903.903 0 00-.071.246V243h-1.031v-4.752c0-.254-.057-.449-.17-.586-.113-.137-.293-.203-.539-.199-.226 0-.402.045-.527.135a.79.79 0 00-.276.357V243h-1.031v-6.34h.973zm16.482-1.535v1.535h2.414v.838h-2.414v3.445c0 .246.031.45.094.61.062.16.148.289.258.386a.959.959 0 00.375.2c.144.039.297.058.457.058.117 0 .238-.006.363-.017a10.875 10.875 0 00.697-.112l.258-.058.153.767c-.09.055-.2.104-.329.147a3.678 3.678 0 01-.421.099 4.348 4.348 0 01-.487.071 5.665 5.665 0 01-.504.023c-.281 0-.545-.039-.791-.117a1.688 1.688 0 01-.633-.381 1.864 1.864 0 01-.427-.674 2.909 2.909 0 01-.153-1.002v-3.445h-1.664v-.838h1.664v-1.535h1.09zm7.442 7.992c-.446 0-.856-.076-1.231-.228a2.813 2.813 0 01-.955-.639 2.906 2.906 0 01-.621-.973 3.305 3.305 0 01-.223-1.224v-.246c0-.512.082-.969.246-1.371a3.13 3.13 0 01.651-1.026 2.86 2.86 0 01.926-.644 2.679 2.679 0 011.066-.223c.457 0 .855.08 1.195.24.344.156.629.375.856.656.226.278.394.606.504.985.113.379.17.789.17 1.23v.487h-4.53c.012.289.067.56.164.814.102.254.239.477.411.668a1.924 1.924 0 001.429.609c.387 0 .731-.078 1.031-.234.301-.156.551-.363.75-.621l.663.516a2.686 2.686 0 01-.944.849 3.305 3.305 0 01-1.558.375zm-.141-5.683c-.219 0-.426.041-.621.123a1.56 1.56 0 00-.527.351c-.157.153-.29.342-.399.569-.105.222-.18.48-.223.773h3.411v-.082a2.37 2.37 0 00-.123-.627 1.712 1.712 0 00-.299-.557 1.51 1.51 0 00-.504-.398 1.553 1.553 0 00-.715-.152zm8.76 3.884a.768.768 0 00-.076-.345.76.76 0 00-.258-.287 1.941 1.941 0 00-.481-.235 4.935 4.935 0 00-.744-.199 7.534 7.534 0 01-.996-.27 3.362 3.362 0 01-.767-.375 1.705 1.705 0 01-.493-.515 1.34 1.34 0 01-.175-.692c0-.257.06-.498.181-.72.121-.227.291-.424.51-.592.219-.168.478-.301.779-.399a3.292 3.292 0 011.002-.146c.391 0 .742.051 1.055.152.312.102.578.243.797.422.218.18.386.391.504.633.121.238.181.496.181.773h-1.084a.826.826 0 00-.105-.398 1.137 1.137 0 00-.293-.352 1.517 1.517 0 00-.457-.246 1.792 1.792 0 00-.598-.093c-.23 0-.433.025-.609.076a1.399 1.399 0 00-.434.205.889.889 0 00-.258.299.76.76 0 00-.087.351c0 .125.023.237.07.334a.69.69 0 00.24.264c.117.078.272.148.463.211.195.062.441.123.738.181.391.083.74.178 1.049.288.309.105.568.234.779.386.211.149.371.323.481.522.113.199.17.429.17.691 0 .281-.065.537-.194.768-.125.23-.3.428-.527.592a2.563 2.563 0 01-.814.38 3.79 3.79 0 01-1.038.135c-.429 0-.812-.056-1.148-.17a2.846 2.846 0 01-.855-.457 2.039 2.039 0 01-.534-.662 1.768 1.768 0 01-.181-.779h1.084c.015.222.074.41.175.562.106.153.235.276.387.369.156.094.328.161.516.2.187.039.373.058.556.058.458 0 .819-.084 1.084-.252.266-.168.401-.39.405-.668zm5.56-6.193v1.535h2.414v.838h-2.414v3.445c0 .246.032.45.094.61.063.16.148.289.258.386a.959.959 0 00.375.2c.144.039.297.058.457.058.117 0 .238-.006.363-.017a10.875 10.875 0 00.697-.112l.258-.058.153.767c-.09.055-.2.104-.329.147a3.629 3.629 0 01-.421.099 4.348 4.348 0 01-.487.071 5.665 5.665 0 01-.504.023c-.281 0-.545-.039-.791-.117a1.677 1.677 0 01-.632-.381c-.18-.176-.323-.4-.428-.674a2.909 2.909 0 01-.153-1.002v-3.445h-1.664v-.838h1.664v-1.535h1.09z" fill="#959DA5"/><path d="M62.119 224h6.15v-1.322h-4.614v-8.86h-1.536V224zm7.783 0h1.486v-7.636h-1.486V224zm.75-8.815c.512 0 .94-.397.94-.885 0-.487-.428-.889-.94-.889-.517 0-.94.402-.94.889 0 .488.423.885.94.885zm4.222 4.281c0-1.218.746-1.914 1.78-1.914 1.01 0 1.621.661 1.621 1.77V224h1.486v-4.857c0-1.889-1.038-2.879-2.6-2.879-1.148 0-1.899.532-2.252 1.343h-.094v-1.243h-1.427V224h1.486v-4.534zm11.719 1.367c.004 1.298-.96 1.914-1.795 1.914-.92 0-1.556-.666-1.556-1.705v-4.678h-1.487v4.857c0 1.894 1.04 2.878 2.506 2.878 1.148 0 1.929-.606 2.282-1.421h.08V224h1.461v-7.636h-1.492v4.469zm4.662-4.469h-1.631l2.347 3.818L89.594 224h1.63l1.716-2.854L94.66 224h1.626l-2.401-3.818 2.381-3.818H94.64l-1.7 2.973-1.685-2.973z" fill="#000"/><path d="M48.92 230.573c-.28-.746-.642-1.454-1.034-2.145a21.572 21.572 0 00-3.556-4.671 1.135 1.135 0 01-.241-.372c-.377-.884-.515-1.828-.692-2.763-.132-.699-.278-1.396-.577-2.049-.777-1.694-2.124-2.515-3.56-2.572-.089 0-.176-.003-.262 0-.086-.003-.173 0-.261 0-1.437.057-2.784.878-3.56 2.572-.3.652-.446 1.349-.578 2.049-.176.935-.315 1.878-.691 2.763-.06.139-.133.264-.241.372a21.548 21.548 0 00-3.557 4.671c-.392.692-.753 1.4-1.034 2.145-.132.349-.104.688.143.981.242.288.555.239.871.156.52-.138 1.045-.261 1.562-.408.18-.051.242-.016.283.169.21.959.596 1.846 1.199 2.622 1.533 1.973 3.506 2.925 5.864 2.906 2.359.019 4.332-.933 5.865-2.906.602-.776.988-1.663 1.199-2.622.04-.185.102-.22.282-.169.517.147 1.042.27 1.562.408.317.083.63.132.871-.156.247-.293.275-.632.143-.981zm-6.919 3.176c-.903.659-1.917.964-3.003.967-1.085-.004-2.1-.308-3.003-.967-1.527-1.116-2.177-2.662-2.026-4.517.155-1.897.955-3.509 2.37-4.8.45-.412.968-.72 1.543-.928 0 0 .54-.204 1.116-.228.576.023 1.116.228 1.116.228a4.571 4.571 0 011.544.928c1.414 1.291 2.214 2.903 2.369 4.8.152 1.855-.498 3.401-2.026 4.517z" fill="#6A737D"/><path d="M40.227 223.307a6.869 6.869 0 00-.812.512c-.282.201-.532.2-.816-.003a6.656 6.656 0 00-.813-.512c-.444-.287-.886-.578-1.332-.86-.186-.118-.325-.258-.308-.496.016-.238.172-.359.373-.449 1.673-.746 3.338-.679 5 .038.19.082.315.219.33.428.016.21-.096.357-.27.468-.452.288-.9.582-1.352.874z" fill="#E1E4E8"/></g><g filter="url(#filter2_d)"><mask id="path-21-outside-3" maskUnits="userSpaceOnUse" x="307" y="187" width="278" height="86" fill="#000"><path fill="#fff" d="M307 187h278v86H307z"/><path fill-rule="evenodd" clip-rule="evenodd" d="M446 188c-4.838 0-8.873 3.436-9.8 8H314a6 6 0 00-6 6v56a6 6 0 006 6h122.2c.927 4.564 4.962 8 9.8 8 4.838 0 8.873-3.436 9.8-8H578a6 6 0 006-6v-56a6 6 0 00-6-6H455.8c-.927-4.564-4.962-8-9.8-8z"/></mask><path fill-rule="evenodd" clip-rule="evenodd" d="M446 188c-4.838 0-8.873 3.436-9.8 8H314a6 6 0 00-6 6v56a6 6 0 006 6h122.2c.927 4.564 4.962 8 9.8 8 4.838 0 8.873-3.436 9.8-8H578a6 6 0 006-6v-56a6 6 0 00-6-6H455.8c-.927-4.564-4.962-8-9.8-8z" fill="#fff"/><path d="M436.2 196v1h.817l.163-.801-.98-.199zm0 68l.98-.199-.163-.801h-.817v1zm19.6 0v-1h-.817l-.163.801.98.199zm0-68l-.98.199.163.801h.817v-1zm-18.62.199A9.003 9.003 0 01446 189v-2c-5.323 0-9.761 3.78-10.78 8.801l1.96.398zM314 197h122.2v-2H314v2zm-5 5a5 5 0 015-5v-2a7 7 0 00-7 7h2zm0 56v-56h-2v56h2zm5 5a5 5 0 01-5-5h-2a7 7 0 007 7v-2zm122.2 0H314v2h122.2v-2zm9.8 8a9.003 9.003 0 01-8.82-7.199l-1.96.398C436.239 269.22 440.677 273 446 273v-2zm8.82-7.199A9.003 9.003 0 01446 271v2c5.323 0 9.761-3.78 10.78-8.801l-1.96-.398zM578 263H455.8v2H578v-2zm5-5a5 5 0 01-5 5v2a7 7 0 007-7h-2zm0-56v56h2v-56h-2zm-5-5a5 5 0 015 5h2a7 7 0 00-7-7v2zm-122.2 0H578v-2H455.8v2zm-9.8-8a9.003 9.003 0 018.82 7.199l1.96-.398C455.761 190.78 451.323 187 446 187v2z" fill="#6A737D" fill-opacity=".05" mask="url(#path-21-outside-3)"/><circle cx="446" cy="198" r="4" fill="#959DA5"/><circle cx="446" cy="262" r="4" fill="#2188FF"/><path d="M358.174 236.543c.101 0 .207.004.316.012.11.004.213.013.311.029.101.012.193.027.275.047.086.019.156.041.211.064l-.146 1.061a5.309 5.309 0 00-.604-.1 4.858 4.858 0 00-.592-.035c-.507 0-.92.115-1.236.346-.313.23-.543.553-.691.967V243h-1.09v-6.34h1.031l.053 1.008a2.88 2.88 0 01.926-.82 2.489 2.489 0 011.236-.305zm7.166 5.584a2.285 2.285 0 01-.791.732 2.26 2.26 0 01-1.096.258c-.332 0-.633-.051-.902-.152-.27-.106-.5-.268-.692-.486a2.304 2.304 0 01-.445-.833c-.102-.339-.152-.746-.152-1.218v-3.768h1.084v3.779c0 .344.027.629.082.856.054.226.136.408.246.545a.888.888 0 00.398.281c.16.055.344.082.551.082.441 0 .797-.09 1.066-.269a1.63 1.63 0 00.61-.727v-4.547h1.09V243h-.985l-.064-.873zm4.066-5.467l.076.938c.231-.328.514-.584.85-.768a2.322 2.322 0 011.125-.287c.332 0 .633.047.902.141.274.093.506.24.698.439.191.199.338.453.439.762.106.304.158.668.158 1.09V243h-1.084v-4.002a2.39 2.39 0 00-.093-.715 1.128 1.128 0 00-.282-.474 1.065 1.065 0 00-.451-.264 2.045 2.045 0 00-.609-.082c-.364 0-.684.092-.961.275a1.99 1.99 0 00-.656.715V243h-1.084v-6.34h.972zm8.414 5.637c0-.117.018-.227.053-.328a.79.79 0 01.164-.264.705.705 0 01.264-.182.97.97 0 01.369-.064.97.97 0 01.369.064.712.712 0 01.27.182.681.681 0 01.164.264.905.905 0 01.058.328.888.888 0 01-.058.322.689.689 0 01-.164.258.69.69 0 01-.27.17.97.97 0 01-.369.064.97.97 0 01-.369-.064.68.68 0 01-.264-.17.805.805 0 01-.164-.258.98.98 0 01-.053-.322zm0-5.133c0-.117.018-.226.053-.328a.79.79 0 01.164-.264.703.703 0 01.264-.181.97.97 0 01.369-.065.97.97 0 01.369.065.71.71 0 01.27.181.681.681 0 01.164.264.91.91 0 01.058.328.888.888 0 01-.058.322.749.749 0 01-.434.434 1.058 1.058 0 01-.369.059c-.141 0-.264-.02-.369-.059a.741.741 0 01-.428-.434.98.98 0 01-.053-.322z" fill="#D1D5DA"/><path d="M391.027 236.66l.077.938c.23-.328.513-.584.849-.768a2.322 2.322 0 011.125-.287c.332 0 .633.047.902.141.274.093.506.24.698.439.191.199.338.453.439.762.106.304.158.668.158 1.09V243h-1.084v-4.002a2.39 2.39 0 00-.093-.715 1.128 1.128 0 00-.282-.474 1.065 1.065 0 00-.451-.264 2.045 2.045 0 00-.609-.082c-.363 0-.684.092-.961.275a1.99 1.99 0 00-.656.715V243h-1.084v-6.34h.972zm11.584 3.24c0 .454-.054.877-.164 1.272-.109.39-.269.73-.48 1.019a2.269 2.269 0 01-.785.68 2.227 2.227 0 01-1.061.246c-.387 0-.728-.062-1.025-.187a2.133 2.133 0 01-.756-.539v3.047h-1.084v-8.778h.99l.053.692c.211-.262.465-.461.762-.598.3-.141.648-.211 1.043-.211.406 0 .765.08 1.078.24.312.16.574.383.785.668.211.285.371.627.48 1.026.11.394.164.828.164 1.3v.123zm-1.084-.123c0-.308-.035-.601-.105-.879a2.182 2.182 0 00-.317-.738 1.556 1.556 0 00-.539-.51 1.554 1.554 0 00-.785-.187c-.347 0-.64.082-.879.246-.234.16-.422.367-.562.621v3.053c.14.25.328.455.562.615.235.156.532.234.891.234.301 0 .561-.062.779-.187.219-.129.399-.301.539-.516.141-.215.244-.463.311-.744.07-.281.105-.576.105-.885v-.123zm3.44-3.117l.029.598c.129-.223.297-.397.504-.522a1.51 1.51 0 01.762-.193c.582 0 .97.227 1.166.68.125-.203.289-.366.492-.487.207-.125.457-.189.75-.193.465 0 .822.143 1.072.428.25.285.375.717.375 1.295V243h-1.031v-4.746c0-.531-.244-.795-.732-.791a.93.93 0 00-.334.053.656.656 0 00-.381.357.903.903 0 00-.071.246V243h-1.031v-4.752c0-.254-.057-.449-.17-.586-.113-.137-.293-.203-.539-.199-.226 0-.402.045-.527.135a.79.79 0 00-.276.357V243h-1.031v-6.34h.973zm16.482-1.535v1.535h2.414v.838h-2.414v3.445c0 .246.031.45.094.61.062.16.148.289.258.386a.959.959 0 00.375.2c.144.039.297.058.457.058.117 0 .238-.006.363-.017a10.875 10.875 0 00.697-.112l.258-.058.153.767c-.09.055-.2.104-.329.147a3.678 3.678 0 01-.421.099 4.348 4.348 0 01-.487.071 5.665 5.665 0 01-.504.023c-.281 0-.545-.039-.791-.117a1.688 1.688 0 01-.633-.381 1.864 1.864 0 01-.427-.674 2.909 2.909 0 01-.153-1.002v-3.445h-1.664v-.838h1.664v-1.535h1.09zm7.442 7.992c-.446 0-.856-.076-1.231-.228a2.813 2.813 0 01-.955-.639 2.906 2.906 0 01-.621-.973 3.305 3.305 0 01-.223-1.224v-.246c0-.512.082-.969.246-1.371a3.13 3.13 0 01.651-1.026 2.86 2.86 0 01.926-.644 2.679 2.679 0 011.066-.223c.457 0 .855.08 1.195.24.344.156.629.375.856.656.226.278.394.606.504.985.113.379.17.789.17 1.23v.487h-4.53c.012.289.067.56.164.814.102.254.239.477.411.668a1.924 1.924 0 001.429.609c.387 0 .731-.078 1.031-.234.301-.156.551-.363.75-.621l.663.516a2.686 2.686 0 01-.944.849 3.305 3.305 0 01-1.558.375zm-.141-5.683c-.219 0-.426.041-.621.123a1.56 1.56 0 00-.527.351c-.157.153-.29.342-.399.569-.105.222-.18.48-.223.773h3.411v-.082a2.37 2.37 0 00-.123-.627 1.712 1.712 0 00-.299-.557 1.51 1.51 0 00-.504-.398 1.553 1.553 0 00-.715-.152zm8.76 3.884a.768.768 0 00-.076-.345.76.76 0 00-.258-.287 1.941 1.941 0 00-.481-.235 4.935 4.935 0 00-.744-.199 7.534 7.534 0 01-.996-.27 3.362 3.362 0 01-.767-.375 1.705 1.705 0 01-.493-.515 1.34 1.34 0 01-.175-.692c0-.257.06-.498.181-.72.121-.227.291-.424.51-.592.219-.168.478-.301.779-.399a3.292 3.292 0 011.002-.146c.391 0 .742.051 1.055.152.312.102.578.243.797.422.218.18.386.391.504.633.121.238.181.496.181.773h-1.084a.826.826 0 00-.105-.398 1.137 1.137 0 00-.293-.352 1.517 1.517 0 00-.457-.246 1.792 1.792 0 00-.598-.093c-.23 0-.433.025-.609.076a1.399 1.399 0 00-.434.205.889.889 0 00-.258.299.76.76 0 00-.087.351c0 .125.023.237.07.334a.69.69 0 00.24.264c.117.078.272.148.463.211.195.062.441.123.738.181.391.083.74.178 1.049.288.309.105.568.234.779.386.211.149.371.323.481.522.113.199.17.429.17.691 0 .281-.065.537-.194.768-.125.23-.3.428-.527.592a2.563 2.563 0 01-.814.38 3.79 3.79 0 01-1.038.135c-.429 0-.812-.056-1.148-.17a2.846 2.846 0 01-.855-.457 2.039 2.039 0 01-.534-.662 1.768 1.768 0 01-.181-.779h1.084c.015.222.074.41.175.562.106.153.235.276.387.369.156.094.328.161.516.2.187.039.373.058.556.058.458 0 .819-.084 1.084-.252.266-.168.401-.39.405-.668zm5.56-6.193v1.535h2.414v.838h-2.414v3.445c0 .246.032.45.094.61.063.16.148.289.258.386a.959.959 0 00.375.2c.144.039.297.058.457.058.117 0 .238-.006.363-.017a10.875 10.875 0 00.697-.112l.258-.058.153.767c-.09.055-.2.104-.329.147a3.629 3.629 0 01-.421.099 4.348 4.348 0 01-.487.071 5.665 5.665 0 01-.504.023c-.281 0-.545-.039-.791-.117a1.677 1.677 0 01-.632-.381c-.18-.176-.323-.4-.428-.674a2.909 2.909 0 01-.153-1.002v-3.445h-1.664v-.838h1.664v-1.535h1.09z" fill="#959DA5"/><path d="M353.999 224h1.487v-4.708c0-1.029.721-1.745 1.566-1.745.825 0 1.397.547 1.397 1.377V224h1.481v-4.867c0-.92.562-1.586 1.532-1.586.785 0 1.431.437 1.431 1.471V224h1.487v-5.121c0-1.745-.974-2.615-2.357-2.615-1.098 0-1.924.527-2.291 1.343h-.08c-.333-.836-1.034-1.343-2.053-1.343-1.01 0-1.76.502-2.078 1.343h-.095v-1.243h-1.427V224zm14.596.169c1.262 0 1.973-.641 2.257-1.213h.059V224h1.452v-5.071c0-2.222-1.75-2.665-2.963-2.665-1.382 0-2.655.557-3.152 1.949l1.397.318c.219-.542.776-1.064 1.775-1.064.959 0 1.452.502 1.452 1.368v.034c0 .542-.557.532-1.929.691-1.447.169-2.929.547-2.929 2.282 0 1.502 1.129 2.327 2.581 2.327zm.323-1.193c-.84 0-1.447-.378-1.447-1.114 0-.795.706-1.079 1.566-1.193.482-.065 1.626-.194 1.84-.408v.985c0 .905-.721 1.73-1.959 1.73zm8.642 1.178c1.804 0 2.973-1.084 3.137-2.57h-1.447c-.189.825-.83 1.312-1.68 1.312-1.258 0-2.069-1.049-2.069-2.714 0-1.636.826-2.665 2.069-2.665.944 0 1.521.597 1.68 1.313h1.447c-.159-1.542-1.417-2.566-3.152-2.566-2.153 0-3.545 1.621-3.545 3.953 0 2.301 1.342 3.937 3.56 3.937zm13.69-5.245c0-3.256-1.949-5.23-4.584-5.23-2.645 0-4.588 1.974-4.588 5.23 0 3.252 1.943 5.23 4.588 5.23 2.635 0 4.584-1.974 4.584-5.23zm-1.521 0c0 2.481-1.313 3.828-3.063 3.828-1.755 0-3.062-1.347-3.062-3.828s1.307-3.828 3.062-3.828c1.75 0 3.063 1.347 3.063 3.828zm8.99-2.416h1.481c-.044-1.631-1.486-2.814-3.554-2.814-2.044 0-3.61 1.168-3.61 2.923 0 1.417 1.014 2.247 2.65 2.69l1.203.328c1.089.288 1.929.646 1.929 1.551 0 .994-.949 1.651-2.257 1.651-1.183 0-2.168-.527-2.257-1.636h-1.541c.099 1.845 1.526 2.983 3.808 2.983 2.391 0 3.768-1.258 3.768-2.983 0-1.834-1.635-2.545-2.928-2.864l-.994-.258c-.796-.204-1.855-.577-1.85-1.551 0-.865.791-1.507 2.044-1.507 1.168 0 1.998.547 2.108 1.487z" fill="#000"/><path d="M340.644 229.586a10.943 10.943 0 01-1.085 1.933c-.571.806-1.038 1.364-1.398 1.674-.558.509-1.156.769-1.797.784-.459 0-1.014-.13-1.659-.393-.648-.261-1.242-.391-1.786-.391-.571 0-1.183.13-1.838.391-.655.263-1.183.4-1.587.414-.614.026-1.226-.242-1.838-.805-.39-.337-.877-.915-1.462-1.733-.627-.874-1.143-1.888-1.546-3.043-.431-1.249-.648-2.457-.648-3.628 0-1.34.293-2.496.878-3.465a5.114 5.114 0 011.839-1.842 4.996 4.996 0 012.485-.695c.489 0 1.128.149 1.923.443.792.295 1.301.445 1.524.445.167 0 .733-.176 1.691-.524.907-.323 1.672-.457 2.297-.405 1.698.136 2.974.799 3.822 1.994-1.518.912-2.269 2.189-2.255 3.827.014 1.277.481 2.338 1.399 3.182.417.391.881.693 1.398.908-.113.324-.231.632-.357.929zm-3.895-15.187c0 1-.368 1.935-1.103 2.799-.887 1.027-1.96 1.621-3.124 1.527a3.039 3.039 0 01-.023-.379c0-.96.422-1.987 1.171-2.828a4.506 4.506 0 011.426-1.062c.576-.278 1.12-.432 1.632-.458.015.135.021.269.021.401z" fill="#959DA5"/></g><g filter="url(#filter3_d-edit1)"><mask id="path-28-outside-4" maskUnits="userSpaceOnUse" x="599" y="187" width="278" height="86" fill="#000"><path fill="#fff" d="M599 187h278v86H599z"/><path fill-rule="evenodd" clip-rule="evenodd" d="M738 188c-4.838 0-8.873 3.436-9.8 8H606a6 6 0 00-6 6v56a6 6 0 006 6h122.2c.927 4.564 4.962 8 9.8 8 4.838 0 8.873-3.436 9.8-8H870a6 6 0 006-6v-56a6 6 0 00-6-6H747.8c-.927-4.564-4.962-8-9.8-8z"/></mask><path fill-rule="evenodd" clip-rule="evenodd" d="M738 188c-4.838 0-8.873 3.436-9.8 8H606a6 6 0 00-6 6v56a6 6 0 006 6h122.2c.927 4.564 4.962 8 9.8 8 4.838 0 8.873-3.436 9.8-8H870a6 6 0 006-6v-56a6 6 0 00-6-6H747.8c-.927-4.564-4.962-8-9.8-8z" fill="#fff"/><path d="M728.2 196v1h.817l.163-.801-.98-.199zm0 68l.98-.199-.163-.801h-.817v1zm19.6 0v-1h-.817l-.163.801.98.199zm0-68l-.98.199.163.801h.817v-1zm-18.62.199A9.003 9.003 0 01738 189v-2c-5.323 0-9.761 3.78-10.78 8.801l1.96.398zM606 197h122.2v-2H606v2zm-5 5a5 5 0 015-5v-2a7 7 0 00-7 7h2zm0 56v-56h-2v56h2zm5 5a5 5 0 01-5-5h-2a7 7 0 007 7v-2zm122.2 0H606v2h122.2v-2zm9.8 8a9.003 9.003 0 01-8.82-7.199l-1.96.398C728.239 269.22 732.677 273 738 273v-2zm8.82-7.199A9.003 9.003 0 01738 271v2c5.323 0 9.761-3.78 10.78-8.801l-1.96-.398zM870 263H747.8v2H870v-2zm5-5a5 5 0 01-5 5v2a7 7 0 007-7h-2zm0-56v56h2v-56h-2zm-5-5a5 5 0 015 5h2a7 7 0 00-7-7v2zm-122.2 0H870v-2H747.8v2zm-9.8-8a9.003 9.003 0 018.82 7.199l1.96-.398C747.761 190.78 743.323 187 738 187v2z" fill="#6A737D" fill-opacity=".05" mask="url(#path-28-outside-4)"/><circle cx="738" cy="198" r="4" fill="#959DA5"/><circle cx="738" cy="262" r="4" fill="#2188FF"/><path d="M654.174 236.543c.101 0 .207.004.316.012.11.004.213.013.311.029.101.012.193.027.275.047.086.019.156.041.211.064l-.146 1.061a5.309 5.309 0 00-.604-.1 4.858 4.858 0 00-.592-.035c-.507 0-.92.115-1.236.346-.313.23-.543.553-.691.967V243h-1.09v-6.34h1.031l.053 1.008a2.88 2.88 0 01.926-.82 2.489 2.489 0 011.236-.305zm7.166 5.584a2.285 2.285 0 01-.791.732 2.26 2.26 0 01-1.096.258c-.332 0-.633-.051-.902-.152-.27-.106-.5-.268-.692-.486a2.304 2.304 0 01-.445-.833c-.102-.339-.152-.746-.152-1.218v-3.768h1.084v3.779c0 .344.027.629.082.856.054.226.136.408.246.545a.888.888 0 00.398.281c.16.055.344.082.551.082.441 0 .797-.09 1.066-.269a1.63 1.63 0 00.61-.727v-4.547h1.09V243h-.985l-.064-.873zm4.066-5.467l.076.938c.231-.328.514-.584.85-.768a2.322 2.322 0 011.125-.287c.332 0 .633.047.902.141.274.093.506.24.698.439.191.199.338.453.439.762.106.304.158.668.158 1.09V243h-1.084v-4.002a2.39 2.39 0 00-.093-.715 1.128 1.128 0 00-.282-.474 1.065 1.065 0 00-.451-.264 2.045 2.045 0 00-.609-.082c-.364 0-.684.092-.961.275a1.99 1.99 0 00-.656.715V243h-1.084v-6.34h.972zm8.414 5.637c0-.117.018-.227.053-.328a.79.79 0 01.164-.264.705.705 0 01.264-.182.97.97 0 01.369-.064.97.97 0 01.369.064.712.712 0 01.27.182.681.681 0 01.164.264.905.905 0 01.058.328.888.888 0 01-.058.322.689.689 0 01-.164.258.69.69 0 01-.27.17.97.97 0 01-.369.064.97.97 0 01-.369-.064.68.68 0 01-.264-.17.805.805 0 01-.164-.258.98.98 0 01-.053-.322zm0-5.133c0-.117.018-.226.053-.328a.79.79 0 01.164-.264.703.703 0 01.264-.181.97.97 0 01.369-.065.97.97 0 01.369.065.71.71 0 01.27.181.681.681 0 01.164.264.91.91 0 01.058.328.888.888 0 01-.058.322.749.749 0 01-.434.434 1.058 1.058 0 01-.369.059c-.141 0-.264-.02-.369-.059a.741.741 0 01-.428-.434.98.98 0 01-.053-.322z" fill="#D1D5DA"/><path d="M687.027 236.66l.077.938c.23-.328.513-.584.849-.768a2.322 2.322 0 011.125-.287c.332 0 .633.047.902.141.274.093.506.24.698.439.191.199.338.453.439.762.106.304.158.668.158 1.09V243h-1.084v-4.002a2.39 2.39 0 00-.093-.715 1.128 1.128 0 00-.282-.474 1.065 1.065 0 00-.451-.264 2.045 2.045 0 00-.609-.082c-.363 0-.684.092-.961.275a1.99 1.99 0 00-.656.715V243h-1.084v-6.34h.972zm11.584 3.24c0 .454-.054.877-.164 1.272-.109.39-.269.73-.48 1.019a2.269 2.269 0 01-.785.68 2.227 2.227 0 01-1.061.246c-.387 0-.728-.062-1.025-.187a2.133 2.133 0 01-.756-.539v3.047h-1.084v-8.778h.99l.053.692c.211-.262.465-.461.762-.598.3-.141.648-.211 1.043-.211.406 0 .765.08 1.078.24.312.16.574.383.785.668.211.285.371.627.48 1.026.11.394.164.828.164 1.3v.123zm-1.084-.123c0-.308-.035-.601-.105-.879a2.182 2.182 0 00-.317-.738 1.556 1.556 0 00-.539-.51 1.554 1.554 0 00-.785-.187c-.347 0-.64.082-.879.246-.234.16-.422.367-.562.621v3.053c.14.25.328.455.562.615.235.156.532.234.891.234.301 0 .561-.062.779-.187.219-.129.399-.301.539-.516.141-.215.244-.463.311-.744.07-.281.105-.576.105-.885v-.123zm3.44-3.117l.029.598c.129-.223.297-.397.504-.522a1.51 1.51 0 01.762-.193c.582 0 .97.227 1.166.68.125-.203.289-.366.492-.487.207-.125.457-.189.75-.193.465 0 .822.143 1.072.428.25.285.375.717.375 1.295V243h-1.031v-4.746c0-.531-.244-.795-.732-.791a.93.93 0 00-.334.053.656.656 0 00-.381.357.903.903 0 00-.071.246V243h-1.031v-4.752c0-.254-.057-.449-.17-.586-.113-.137-.293-.203-.539-.199-.226 0-.402.045-.527.135a.79.79 0 00-.276.357V243h-1.031v-6.34h.973zm16.482-1.535v1.535h2.414v.838h-2.414v3.445c0 .246.031.45.094.61.062.16.148.289.258.386a.959.959 0 00.375.2c.144.039.297.058.457.058.117 0 .238-.006.363-.017a10.875 10.875 0 00.697-.112l.258-.058.153.767c-.09.055-.2.104-.329.147a3.678 3.678 0 01-.421.099 4.348 4.348 0 01-.487.071 5.665 5.665 0 01-.504.023c-.281 0-.545-.039-.791-.117a1.688 1.688 0 01-.633-.381 1.864 1.864 0 01-.427-.674 2.909 2.909 0 01-.153-1.002v-3.445h-1.664v-.838h1.664v-1.535h1.09zm7.442 7.992c-.446 0-.856-.076-1.231-.228a2.813 2.813 0 01-.955-.639 2.906 2.906 0 01-.621-.973 3.305 3.305 0 01-.223-1.224v-.246c0-.512.082-.969.246-1.371a3.13 3.13 0 01.651-1.026 2.86 2.86 0 01.926-.644 2.679 2.679 0 011.066-.223c.457 0 .855.08 1.195.24.344.156.629.375.856.656.226.278.394.606.504.985.113.379.17.789.17 1.23v.487h-4.53c.012.289.067.56.164.814.102.254.239.477.411.668a1.924 1.924 0 001.429.609c.387 0 .731-.078 1.031-.234.301-.156.551-.363.75-.621l.663.516a2.686 2.686 0 01-.944.849 3.305 3.305 0 01-1.558.375zm-.141-5.683c-.219 0-.426.041-.621.123a1.56 1.56 0 00-.527.351c-.157.153-.29.342-.399.569-.105.222-.18.48-.223.773h3.411v-.082a2.37 2.37 0 00-.123-.627 1.712 1.712 0 00-.299-.557 1.51 1.51 0 00-.504-.398 1.553 1.553 0 00-.715-.152zm8.76 3.884a.768.768 0 00-.076-.345.76.76 0 00-.258-.287 1.941 1.941 0 00-.481-.235 4.935 4.935 0 00-.744-.199 7.534 7.534 0 01-.996-.27 3.362 3.362 0 01-.767-.375 1.705 1.705 0 01-.493-.515 1.34 1.34 0 01-.175-.692c0-.257.06-.498.181-.72.121-.227.291-.424.51-.592.219-.168.478-.301.779-.399a3.292 3.292 0 011.002-.146c.391 0 .742.051 1.055.152.312.102.578.243.797.422.218.18.386.391.504.633.121.238.181.496.181.773h-1.084a.826.826 0 00-.105-.398 1.137 1.137 0 00-.293-.352 1.517 1.517 0 00-.457-.246 1.792 1.792 0 00-.598-.093c-.23 0-.433.025-.609.076a1.399 1.399 0 00-.434.205.889.889 0 00-.258.299.76.76 0 00-.087.351c0 .125.023.237.07.334a.69.69 0 00.24.264c.117.078.272.148.463.211.195.062.441.123.738.181.391.083.74.178 1.049.288.309.105.568.234.779.386.211.149.371.323.481.522.113.199.17.429.17.691 0 .281-.065.537-.194.768-.125.23-.3.428-.527.592a2.563 2.563 0 01-.814.38 3.79 3.79 0 01-1.038.135c-.429 0-.812-.056-1.148-.17a2.846 2.846 0 01-.855-.457 2.039 2.039 0 01-.534-.662 1.768 1.768 0 01-.181-.779h1.084c.015.222.074.41.175.562.106.153.235.276.387.369.156.094.328.161.516.2.187.039.373.058.556.058.458 0 .819-.084 1.084-.252.266-.168.401-.39.405-.668zm5.56-6.193v1.535h2.414v.838h-2.414v3.445c0 .246.032.45.094.61.063.16.148.289.258.386a.959.959 0 00.375.2c.144.039.297.058.457.058.117 0 .238-.006.363-.017a10.875 10.875 0 00.697-.112l.258-.058.153.767c-.09.055-.2.104-.329.147a3.629 3.629 0 01-.421.099 4.348 4.348 0 01-.487.071 5.665 5.665 0 01-.504.023c-.281 0-.545-.039-.791-.117a1.677 1.677 0 01-.632-.381c-.18-.176-.323-.4-.428-.674a2.909 2.909 0 01-.153-1.002v-3.445h-1.664v-.838h1.664v-1.535h1.09z" fill="#959DA5"/><path d="M651.112 224h1.551l2.143-7.626h.08l2.142 7.626h1.547l2.828-10.182h-1.62l-1.979 7.89h-.094l-2.064-7.89h-1.601l-2.063 7.885h-.094l-1.984-7.885h-1.616L651.112 224zm11.573 0h1.486v-7.636h-1.486V224zm.751-8.815c.512 0 .939-.397.939-.885 0-.487-.427-.889-.939-.889-.517 0-.94.402-.94.889 0 .488.423.885.94.885zm4.222 4.281c0-1.218.745-1.914 1.78-1.914 1.009 0 1.62.661 1.62 1.77V224h1.487v-4.857c0-1.889-1.039-2.879-2.6-2.879-1.149 0-1.9.532-2.253 1.343h-.094v-1.243h-1.427V224h1.487v-4.534zm9.739 4.683c1.392 0 1.939-.85 2.207-1.337h.125V224h1.451v-10.182h-1.486v3.784h-.09c-.268-.473-.775-1.338-2.197-1.338-1.845 0-3.202 1.457-3.202 3.933 0 2.471 1.338 3.952 3.192 3.952zm.328-1.268c-1.327 0-2.018-1.168-2.018-2.699 0-1.517.676-2.655 2.018-2.655 1.298 0 1.994 1.059 1.994 2.655 0 1.606-.711 2.699-1.994 2.699zm8.794 1.273c2.152 0 3.559-1.576 3.559-3.937 0-2.377-1.407-3.953-3.559-3.953-2.153 0-3.56 1.576-3.56 3.953 0 2.361 1.407 3.937 3.56 3.937zm.005-1.248c-1.407 0-2.064-1.228-2.064-2.694 0-1.462.657-2.705 2.064-2.705 1.397 0 2.053 1.243 2.053 2.705 0 1.466-.656 2.694-2.053 2.694zm6.637 1.094h1.511l1.551-5.513h.115l1.551 5.513h1.516l2.242-7.636h-1.536l-1.487 5.583h-.074l-1.492-5.583h-1.536l-1.501 5.608h-.075l-1.496-5.608h-1.536l2.247 7.636zm15.619-5.772c-.308-1.188-1.238-1.964-2.888-1.964-1.725 0-2.948.91-2.948 2.262 0 1.084.656 1.805 2.088 2.123l1.292.284c.736.164 1.079.492 1.079.969 0 .592-.631 1.054-1.606 1.054-.89 0-1.461-.383-1.64-1.134l-1.437.219c.248 1.352 1.372 2.113 3.087 2.113 1.845 0 3.122-.979 3.122-2.361 0-1.079-.686-1.745-2.088-2.069l-1.213-.278c-.84-.199-1.203-.482-1.198-.999-.005-.587.631-1.005 1.477-1.005.924 0 1.352.513 1.526 1.025l1.347-.239z" fill="#000"/><path d="M616 217.832l8.173-1.11.004 7.86-8.17.046-.007-6.796zm8.169 7.655l.007 7.867-8.17-1.12v-6.8l8.163.053zm.991-8.91L635.997 215v9.482l-10.837.085v-7.99zm10.84 8.984l-.003 9.439-10.837-1.525-.015-7.932 10.855.018z" fill="#959DA5"/></g><defs><filter id="filter0_d-edit1" x="242" y="0" width="408" height="142" filterUnits="userSpaceOnUse" color-interpolation-filters="sRGB"><feFlood flood-opacity="0" result="BackgroundImageFix"/><feColorMatrix in="SourceAlpha" type="matrix" values="0 0 0 0 0 0 0 0 0 0 0 0 0 0 0 0 0 0 127 0"/><feOffset dy="4"/><feGaussianBlur stdDeviation="6"/><feColorMatrix type="matrix" values="0 0 0 0 0.105882 0 0 0 0 0.121569 0 0 0 0 0.137255 0 0 0 0.15 0"/><feBlend mode="normal" in2="BackgroundImageFix" result="effect1_dropShadow"/><feBlend mode="normal" in="SourceGraphic" in2="effect1_dropShadow" result="shape"/></filter><filter id="filter1_d-edit1" x="0" y="179" width="302" height="110" filterUnits="userSpaceOnUse" color-interpolation-filters="sRGB"><feFlood flood-opacity="0" result="BackgroundImageFix"/><feColorMatrix in="SourceAlpha" type="matrix" values="0 0 0 0 0 0 0 0 0 0 0 0 0 0 0 0 0 0 127 0"/><feOffset dy="4"/><feGaussianBlur stdDeviation="6"/><feColorMatrix type="matrix" values="0 0 0 0 0.105882 0 0 0 0 0.121569 0 0 0 0 0.137255 0 0 0 0.15 0"/><feBlend mode="normal" in2="BackgroundImageFix" result="effect1_dropShadow"/><feBlend mode="normal" in="SourceGraphic" in2="effect1_dropShadow" result="shape"/></filter><filter id="filter2_d" x="295" y="179" width="302" height="110" filterUnits="userSpaceOnUse" color-interpolation-filters="sRGB"><feFlood flood-opacity="0" result="BackgroundImageFix"/><feColorMatrix in="SourceAlpha" type="matrix" values="0 0 0 0 0 0 0 0 0 0 0 0 0 0 0 0 0 0 127 0"/><feOffset dy="4"/><feGaussianBlur stdDeviation="6"/><feColorMatrix type="matrix" values="0 0 0 0 0.105882 0 0 0 0 0.121569 0 0 0 0 0.137255 0 0 0 0.15 0"/><feBlend mode="normal" in2="BackgroundImageFix" result="effect1_dropShadow"/><feBlend mode="normal" in="SourceGraphic" in2="effect1_dropShadow" result="shape"/></filter><filter id="filter3_d-edit1" x="587" y="179" width="302" height="110" filterUnits="userSpaceOnUse" color-interpolation-filters="sRGB"><feFlood flood-opacity="0" result="BackgroundImageFix"/><feColorMatrix in="SourceAlpha" type="matrix" values="0 0 0 0 0 0 0 0 0 0 0 0 0 0 0 0 0 0 127 0"/><feOffset dy="4"/><feGaussianBlur stdDeviation="6"/><feColorMatrix type="matrix" values="0 0 0 0 0.105882 0 0 0 0 0.121569 0 0 0 0 0.137255 0 0 0 0.15 0"/><feBlend mode="normal" in2="BackgroundImageFix" result="effect1_dropShadow"/><feBlend mode="normal" in="SourceGraphic" in2="effect1_dropShadow" result="shape"/></filter></defs></svg>